<svg width="185" height="32" viewBox="0 0 185 32" fill="none" xmlns="http://www.w3.org/2000/svg">
<path d="M35.6134 3.88H40.3974V25H35.6134V3.88ZM49.7416 25.384C48.4723 25.384 47.3683 25.0747 46.4296 24.456C45.491 23.8267 44.7603 22.9893 44.2376 21.944C43.7256 20.888 43.4696 19.72 43.4696 18.44C43.4696 17.16 43.7256 15.9973 44.2376 14.952C44.7603 13.896 45.491 13.0533 46.4296 12.424C47.3683 11.7947 48.4723 11.48 49.7416 11.48C50.5843 11.48 51.331 11.6133 51.9816 11.88C52.6323 12.136 53.1603 12.4453 53.5656 12.808C53.971 13.16 54.2163 13.4853 54.3016 13.784V2.984H59.1656V25H54.3496V22.872C54.147 23.2667 53.8163 23.6613 53.3576 24.056C52.899 24.44 52.3603 24.7547 51.7416 25C51.123 25.256 50.4563 25.384 49.7416 25.384ZM51.2296 21.56C51.8163 21.56 52.339 21.4267 52.7976 21.16C53.267 20.8933 53.635 20.5253 53.9016 20.056C54.1683 19.576 54.3016 19.0373 54.3016 18.44C54.3016 17.8427 54.1683 17.3093 53.9016 16.84C53.635 16.36 53.267 15.9867 52.7976 15.72C52.339 15.4427 51.8163 15.304 51.2296 15.304C50.6643 15.304 50.1523 15.4427 49.6936 15.72C49.2456 15.9867 48.8883 16.36 48.6216 16.84C48.3656 17.3093 48.2376 17.8427 48.2376 18.44C48.2376 19.0373 48.3656 19.576 48.6216 20.056C48.8883 20.5253 49.2456 20.8933 49.6936 21.16C50.1523 21.4267 50.6643 21.56 51.2296 21.56ZM62.1446 25V11.864H67.0086V25H62.1446ZM64.6406 9.16C63.8726 9.16 63.222 8.89333 62.6886 8.36C62.1553 7.816 61.8886 7.17067 61.8886 6.424C61.8886 5.67733 62.1553 5.032 62.6886 4.488C63.2326 3.93333 63.8833 3.656 64.6406 3.656C65.142 3.656 65.6006 3.784 66.0166 4.04C66.4326 4.28533 66.7686 4.616 67.0246 5.032C67.2806 5.448 67.4086 5.912 67.4086 6.424C67.4086 7.17067 67.1366 7.816 66.5926 8.36C66.0486 8.89333 65.398 9.16 64.6406 9.16ZM79.3996 11.48C80.317 11.48 81.213 11.6667 82.0876 12.04C82.9623 12.4133 83.6823 13.0053 84.2476 13.816C84.813 14.616 85.0956 15.672 85.0956 16.984V25H80.2156V17.784C80.2156 16.8453 79.9916 16.1413 79.5436 15.672C79.0956 15.192 78.509 14.952 77.7836 14.952C77.3036 14.952 76.8503 15.08 76.4236 15.336C76.0076 15.5813 75.6663 15.9333 75.3996 16.392C75.1436 16.84 75.0156 17.3573 75.0156 17.944V25H70.1516V11.864H75.0156V13.8C75.1436 13.448 75.4103 13.096 75.8156 12.744C76.2316 12.3813 76.749 12.0827 77.3676 11.848C77.997 11.6027 78.6743 11.48 79.3996 11.48ZM104.071 3.496C105.383 3.496 106.53 3.64 107.511 3.928C108.492 4.216 109.282 4.52 109.879 4.84C110.476 5.16 110.839 5.37333 110.967 5.48L108.663 9.336C108.492 9.208 108.199 9.02133 107.783 8.776C107.378 8.53067 106.892 8.312 106.327 8.12C105.772 7.928 105.191 7.832 104.583 7.832C103.762 7.832 103.095 7.98133 102.583 8.28C102.082 8.568 101.831 9 101.831 9.576C101.831 9.97067 101.964 10.328 102.231 10.648C102.508 10.9573 102.924 11.256 103.479 11.544C104.044 11.8213 104.759 12.1253 105.623 12.456C106.412 12.744 107.154 13.0853 107.847 13.48C108.54 13.8747 109.148 14.344 109.671 14.888C110.204 15.4213 110.626 16.04 110.935 16.744C111.244 17.448 111.399 18.248 111.399 19.144C111.399 20.2107 111.18 21.1387 110.743 21.928C110.306 22.7067 109.708 23.352 108.951 23.864C108.204 24.376 107.351 24.7547 106.391 25C105.442 25.256 104.455 25.384 103.431 25.384C101.98 25.384 100.679 25.2187 99.5269 24.888C98.3855 24.5573 97.4629 24.2 96.7589 23.816C96.0549 23.432 95.6335 23.176 95.4949 23.048L97.8789 19.032C98.0069 19.128 98.2522 19.2827 98.6149 19.496C98.9882 19.7093 99.4415 19.9333 99.9749 20.168C100.508 20.392 101.074 20.584 101.671 20.744C102.279 20.904 102.876 20.984 103.463 20.984C104.444 20.984 105.18 20.7973 105.671 20.424C106.162 20.04 106.407 19.5387 106.407 18.92C106.407 18.4613 106.252 18.0507 105.943 17.688C105.634 17.3253 105.17 16.984 104.551 16.664C103.932 16.3333 103.159 15.9867 102.231 15.624C101.303 15.2507 100.434 14.7973 99.6229 14.264C98.8229 13.7307 98.1722 13.064 97.6709 12.264C97.1695 11.464 96.9189 10.472 96.9189 9.288C96.9189 8.104 97.2495 7.08 97.9109 6.216C98.5829 5.34133 99.4629 4.66933 100.551 4.2C101.65 3.73067 102.823 3.496 104.071 3.496ZM113.177 11.864H115.417V6.472H120.233V11.864H123.177V15.864H120.233V19.528C120.233 20.072 120.313 20.5147 120.473 20.856C120.633 21.1867 120.926 21.352 121.353 21.352C121.641 21.352 121.886 21.288 122.089 21.16C122.292 21.032 122.414 20.9467 122.457 20.904L124.121 24.36C124.046 24.424 123.812 24.5413 123.417 24.712C123.033 24.8827 122.542 25.0373 121.945 25.176C121.348 25.3147 120.681 25.384 119.945 25.384C118.633 25.384 117.55 25.016 116.697 24.28C115.844 23.5333 115.417 22.3867 115.417 20.84V15.864H113.177V11.864ZM130.53 17.944C130.53 18.9893 130.727 19.8267 131.122 20.456C131.517 21.0747 132.178 21.384 133.106 21.384C134.055 21.384 134.722 21.0747 135.106 20.456C135.501 19.8267 135.698 18.9893 135.698 17.944V11.864H140.498V18.456C140.498 19.864 140.205 21.0907 139.618 22.136C139.042 23.1707 138.205 23.9707 137.106 24.536C136.007 25.1013 134.674 25.384 133.106 25.384C131.549 25.384 130.221 25.1013 129.122 24.536C128.023 23.9707 127.186 23.1707 126.61 22.136C126.034 21.0907 125.746 19.864 125.746 18.456V11.864H130.53V17.944ZM149.085 25.384C147.816 25.384 146.712 25.0747 145.773 24.456C144.835 23.8267 144.104 22.9893 143.581 21.944C143.069 20.888 142.813 19.72 142.813 18.44C142.813 17.16 143.069 15.9973 143.581 14.952C144.104 13.896 144.835 13.0533 145.773 12.424C146.712 11.7947 147.816 11.48 149.085 11.48C149.928 11.48 150.675 11.6133 151.325 11.88C151.976 12.136 152.504 12.4453 152.909 12.808C153.315 13.16 153.56 13.4853 153.645 13.784V2.984H158.509V25H153.693V22.872C153.491 23.2667 153.16 23.6613 152.701 24.056C152.243 24.44 151.704 24.7547 151.085 25C150.467 25.256 149.8 25.384 149.085 25.384ZM150.573 21.56C151.16 21.56 151.683 21.4267 152.141 21.16C152.611 20.8933 152.979 20.5253 153.245 20.056C153.512 19.576 153.645 19.0373 153.645 18.44C153.645 17.8427 153.512 17.3093 153.245 16.84C152.979 16.36 152.611 15.9867 152.141 15.72C151.683 15.4427 151.16 15.304 150.573 15.304C150.008 15.304 149.496 15.4427 149.037 15.72C148.589 15.9867 148.232 16.36 147.965 16.84C147.709 17.3093 147.581 17.8427 147.581 18.44C147.581 19.0373 147.709 19.576 147.965 20.056C148.232 20.5253 148.589 20.8933 149.037 21.16C149.496 21.4267 150.008 21.56 150.573 21.56ZM161.488 25V11.864H166.352V25H161.488ZM163.984 9.16C163.216 9.16 162.566 8.89333 162.032 8.36C161.499 7.816 161.232 7.17067 161.232 6.424C161.232 5.67733 161.499 5.032 162.032 4.488C162.576 3.93333 163.227 3.656 163.984 3.656C164.486 3.656 164.944 3.784 165.36 4.04C165.776 4.28533 166.112 4.616 166.368 5.032C166.624 5.448 166.752 5.912 166.752 6.424C166.752 7.17067 166.48 7.816 165.936 8.36C165.392 8.89333 164.742 9.16 163.984 9.16ZM176.391 25.384C174.951 25.384 173.671 25.0907 172.551 24.504C171.442 23.9067 170.567 23.0907 169.927 22.056C169.298 21.0107 168.983 19.816 168.983 18.472C168.983 17.128 169.298 15.9333 169.927 14.888C170.567 13.832 171.442 13 172.551 12.392C173.671 11.784 174.951 11.48 176.391 11.48C177.831 11.48 179.101 11.784 180.199 12.392C181.298 13 182.157 13.832 182.775 14.888C183.394 15.9333 183.703 17.128 183.703 18.472C183.703 19.816 183.394 21.0107 182.775 22.056C182.157 23.0907 181.298 23.9067 180.199 24.504C179.101 25.0907 177.831 25.384 176.391 25.384ZM176.391 21.384C176.946 21.384 177.426 21.2613 177.831 21.016C178.237 20.7707 178.551 20.424 178.775 19.976C178.999 19.528 179.111 19.0213 179.111 18.456C179.111 17.88 178.999 17.368 178.775 16.92C178.551 16.472 178.237 16.12 177.831 15.864C177.426 15.608 176.946 15.48 176.391 15.48C175.837 15.48 175.351 15.608 174.935 15.864C174.53 16.12 174.21 16.472 173.975 16.92C173.751 17.368 173.639 17.88 173.639 18.456C173.639 19.0213 173.751 19.528 173.975 19.976C174.21 20.424 174.53 20.7707 174.935 21.016C175.351 21.2613 175.837 21.384 176.391 21.384Z" fill="#23C55F"/>
<path d="M10.0759 11.8975C14.0038 10.019 17.0778 6.83112 18.8425 2.8463C17.704 1.65085 16.2239 0.796964 14.63 0.28463L13.7761 0C13.7192 0.113852 13.6622 0.284637 13.6622 0.398489C12.296 4.26946 9.50664 7.40038 5.74953 9.16509C3.13093 10.4175 1.19545 12.6945 0.28463 15.4269L0 16.2808C0.113852 16.3378 0.284633 16.3947 0.398485 16.3947C1.48008 16.7932 2.56167 17.3055 3.58634 17.9317C5.00949 15.37 7.28653 13.2068 10.0759 11.8975Z" fill="#23C55F"/>
<path d="M26.5844 12.1252C24.4782 15.3131 21.5749 17.8748 17.9886 19.5826C15.0854 20.9488 12.8653 23.5105 11.8406 26.5845L11.556 27.5522C12.6376 28.5199 13.9469 29.26 15.37 29.7154L16.2239 30C16.2808 29.8862 16.3377 29.7154 16.3377 29.6015C17.704 25.7306 20.4934 22.5996 24.2505 20.8349C26.8691 19.5826 28.8615 17.3055 29.7154 14.5731L30 13.7192C28.8045 13.3776 27.666 12.8084 26.5844 12.1252Z" fill="#23C55F"/>
<path d="M9.27895 24.5921C10.7021 21.1765 13.3207 18.3871 16.6793 16.7932C19.7533 15.3131 22.315 13.0361 24.0797 10.2467C22.7704 8.99434 21.6888 7.57118 20.8919 5.8634C18.7856 9.73437 15.4839 12.8653 11.4421 14.8008C9.10817 15.8824 7.22961 17.761 6.09109 20.038C7.34347 21.2334 8.36814 22.7135 9.1651 24.3644C9.1651 24.3644 9.22202 24.4782 9.27895 24.5921Z" fill="#23C55F"/>
</svg>
